<mxfile host="app.diagrams.net" modified="2024-01-25T07:01:58.107Z" agent="Mozilla/5.0 (Windows NT 10.0; Win64; x64) AppleWebKit/537.36 (KHTML, like Gecko) Chrome/120.0.0.0 Safari/537.36" etag="uYtJByk18sIHZAmLKtlx" version="23.0.0" type="device">
  <diagram name="Page-1" id="sJrhXhEhK8DQwWhL0PdE">
    <mxGraphModel dx="1434" dy="746" grid="1" gridSize="10" guides="1" tooltips="1" connect="1" arrows="1" fold="1" page="1" pageScale="1" pageWidth="850" pageHeight="1100" math="0" shadow="0">
      <root>
        <mxCell id="0" />
        <mxCell id="1" parent="0" />
        <mxCell id="aXw4IWgBB-Bs6DAsrM4V-2" value="Activate" style="pointerEvents=1;verticalLabelPosition=top;shadow=0;dashed=0;align=center;html=1;verticalAlign=bottom;shape=mxgraph.electrical.waveforms.square_wave;labelPosition=center;" vertex="1" parent="1">
          <mxGeometry x="30" y="240" width="130" height="70" as="geometry" />
        </mxCell>
        <mxCell id="aXw4IWgBB-Bs6DAsrM4V-3" value="RCD" style="pointerEvents=1;verticalLabelPosition=top;shadow=0;dashed=0;align=center;html=1;verticalAlign=bottom;shape=mxgraph.electrical.waveforms.square_wave;labelPosition=center;" vertex="1" parent="1">
          <mxGeometry x="160" y="240" width="140" height="70" as="geometry" />
        </mxCell>
        <mxCell id="aXw4IWgBB-Bs6DAsrM4V-4" value="RW" style="pointerEvents=1;verticalLabelPosition=top;shadow=0;dashed=0;align=center;html=1;verticalAlign=bottom;shape=mxgraph.electrical.waveforms.square_wave;labelPosition=center;" vertex="1" parent="1">
          <mxGeometry x="300" y="240" width="140" height="70" as="geometry" />
        </mxCell>
        <mxCell id="aXw4IWgBB-Bs6DAsrM4V-8" value="sd_dout_r &amp;lt;= data_i" style="text;strokeColor=none;align=center;fillColor=none;html=1;verticalAlign=middle;whiteSpace=wrap;rounded=0;" vertex="1" parent="1">
          <mxGeometry x="170" y="320" width="120" height="30" as="geometry" />
        </mxCell>
        <mxCell id="aXw4IWgBB-Bs6DAsrM4V-10" value="cmd_r &amp;lt;= CMD_WRITE" style="text;strokeColor=none;align=center;fillColor=none;html=1;verticalAlign=middle;whiteSpace=wrap;rounded=0;" vertex="1" parent="1">
          <mxGeometry x="305" y="320" width="130" height="30" as="geometry" />
        </mxCell>
        <mxCell id="aXw4IWgBB-Bs6DAsrM4V-11" value="sd_busdir_r &amp;lt;= 1" style="text;strokeColor=none;align=center;fillColor=none;html=1;verticalAlign=middle;whiteSpace=wrap;rounded=0;" vertex="1" parent="1">
          <mxGeometry x="305" y="350" width="130" height="30" as="geometry" />
        </mxCell>
        <mxCell id="aXw4IWgBB-Bs6DAsrM4V-12" value="cmd_r &amp;lt;= CMD_NOP" style="text;strokeColor=none;align=center;fillColor=none;html=1;verticalAlign=middle;whiteSpace=wrap;rounded=0;" vertex="1" parent="1">
          <mxGeometry x="165" y="350" width="130" height="30" as="geometry" />
        </mxCell>
        <mxCell id="aXw4IWgBB-Bs6DAsrM4V-13" value="sd_busdir_r &amp;lt;= 0" style="text;strokeColor=none;align=center;fillColor=none;html=1;verticalAlign=middle;whiteSpace=wrap;rounded=0;" vertex="1" parent="1">
          <mxGeometry x="165" y="380" width="130" height="30" as="geometry" />
        </mxCell>
        <mxCell id="aXw4IWgBB-Bs6DAsrM4V-14" value="Trcd" style="shape=crossbar;whiteSpace=wrap;html=1;rounded=1;labelPosition=center;verticalLabelPosition=top;align=center;verticalAlign=bottom;" vertex="1" parent="1">
          <mxGeometry x="30" y="180" width="270" height="20" as="geometry" />
        </mxCell>
        <mxCell id="aXw4IWgBB-Bs6DAsrM4V-15" value="RAS1" style="pointerEvents=1;verticalLabelPosition=top;shadow=0;dashed=0;align=center;html=1;verticalAlign=bottom;shape=mxgraph.electrical.waveforms.square_wave;labelPosition=center;" vertex="1" parent="1">
          <mxGeometry x="440" y="240" width="140" height="70" as="geometry" />
        </mxCell>
        <mxCell id="aXw4IWgBB-Bs6DAsrM4V-16" value="cmd_r &amp;lt;= CMD_NOP" style="text;strokeColor=none;align=center;fillColor=none;html=1;verticalAlign=middle;whiteSpace=wrap;rounded=0;" vertex="1" parent="1">
          <mxGeometry x="445" y="320" width="130" height="30" as="geometry" />
        </mxCell>
        <mxCell id="aXw4IWgBB-Bs6DAsrM4V-17" value="sd_busdir_r &amp;lt;= 0" style="text;strokeColor=none;align=center;fillColor=none;html=1;verticalAlign=middle;whiteSpace=wrap;rounded=0;" vertex="1" parent="1">
          <mxGeometry x="445" y="350" width="130" height="30" as="geometry" />
        </mxCell>
        <mxCell id="aXw4IWgBB-Bs6DAsrM4V-18" value="RAS2" style="pointerEvents=1;verticalLabelPosition=top;shadow=0;dashed=0;align=center;html=1;verticalAlign=bottom;shape=mxgraph.electrical.waveforms.square_wave;labelPosition=center;" vertex="1" parent="1">
          <mxGeometry x="580" y="240" width="140" height="70" as="geometry" />
        </mxCell>
        <mxCell id="aXw4IWgBB-Bs6DAsrM4V-19" value="Precharge" style="pointerEvents=1;verticalLabelPosition=top;shadow=0;dashed=0;align=center;html=1;verticalAlign=bottom;shape=mxgraph.electrical.waveforms.square_wave;labelPosition=center;" vertex="1" parent="1">
          <mxGeometry x="720" y="240" width="140" height="70" as="geometry" />
        </mxCell>
        <mxCell id="aXw4IWgBB-Bs6DAsrM4V-20" value="cmd_r &amp;lt;= CMD_PRECHARGE" style="text;strokeColor=none;align=center;fillColor=none;html=1;verticalAlign=middle;whiteSpace=wrap;rounded=0;" vertex="1" parent="1">
          <mxGeometry x="705" y="320" width="170" height="30" as="geometry" />
        </mxCell>
        <mxCell id="aXw4IWgBB-Bs6DAsrM4V-21" value="addr_r[10] = 1" style="text;strokeColor=none;align=center;fillColor=none;html=1;verticalAlign=middle;whiteSpace=wrap;rounded=0;" vertex="1" parent="1">
          <mxGeometry x="725" y="350" width="130" height="30" as="geometry" />
        </mxCell>
        <mxCell id="aXw4IWgBB-Bs6DAsrM4V-22" value="Idle" style="pointerEvents=1;verticalLabelPosition=top;shadow=0;dashed=0;align=center;html=1;verticalAlign=bottom;shape=mxgraph.electrical.waveforms.square_wave;labelPosition=center;" vertex="1" parent="1">
          <mxGeometry x="860" y="240" width="140" height="70" as="geometry" />
        </mxCell>
        <mxCell id="aXw4IWgBB-Bs6DAsrM4V-23" value="done_o &amp;lt;= 1" style="text;strokeColor=none;align=center;fillColor=none;html=1;verticalAlign=middle;whiteSpace=wrap;rounded=0;" vertex="1" parent="1">
          <mxGeometry x="725" y="380" width="130" height="30" as="geometry" />
        </mxCell>
        <mxCell id="aXw4IWgBB-Bs6DAsrM4V-24" value="cmd_r &amp;lt;= CMD_ACTIVATTE" style="text;strokeColor=none;align=center;fillColor=none;html=1;verticalAlign=middle;whiteSpace=wrap;rounded=0;" vertex="1" parent="1">
          <mxGeometry x="5" y="320" width="160" height="30" as="geometry" />
        </mxCell>
        <mxCell id="aXw4IWgBB-Bs6DAsrM4V-25" value="addr_r &amp;lt;= row_s" style="text;strokeColor=none;align=center;fillColor=none;html=1;verticalAlign=middle;whiteSpace=wrap;rounded=0;" vertex="1" parent="1">
          <mxGeometry x="15" y="350" width="160" height="30" as="geometry" />
        </mxCell>
        <mxCell id="aXw4IWgBB-Bs6DAsrM4V-26" value="cmd_r &amp;lt;= CMD_READ" style="text;strokeColor=none;align=center;fillColor=none;html=1;verticalAlign=middle;whiteSpace=wrap;rounded=0;" vertex="1" parent="1">
          <mxGeometry x="305" y="460" width="130" height="30" as="geometry" />
        </mxCell>
        <mxCell id="aXw4IWgBB-Bs6DAsrM4V-27" value="buf_dout_x &amp;lt;= sdData_io" style="text;strokeColor=none;align=center;fillColor=none;html=1;verticalAlign=middle;whiteSpace=wrap;rounded=0;" vertex="1" parent="1">
          <mxGeometry x="580" y="460" width="145" height="30" as="geometry" />
        </mxCell>
        <mxCell id="aXw4IWgBB-Bs6DAsrM4V-28" value="Tcas" style="shape=crossbar;whiteSpace=wrap;html=1;rounded=1;labelPosition=center;verticalLabelPosition=top;align=center;verticalAlign=bottom;" vertex="1" parent="1">
          <mxGeometry x="300" y="180" width="280" height="20" as="geometry" />
        </mxCell>
        <mxCell id="aXw4IWgBB-Bs6DAsrM4V-29" value="Tras" style="shape=crossbar;whiteSpace=wrap;html=1;rounded=1;labelPosition=center;verticalLabelPosition=top;align=center;verticalAlign=bottom;" vertex="1" parent="1">
          <mxGeometry x="30" y="130" width="690" height="20" as="geometry" />
        </mxCell>
        <mxCell id="aXw4IWgBB-Bs6DAsrM4V-30" value="Trc" style="shape=crossbar;whiteSpace=wrap;html=1;rounded=1;labelPosition=center;verticalLabelPosition=top;align=center;verticalAlign=bottom;" vertex="1" parent="1">
          <mxGeometry x="30" y="80" width="970" height="20" as="geometry" />
        </mxCell>
        <mxCell id="aXw4IWgBB-Bs6DAsrM4V-32" value="Refresh" style="pointerEvents=1;verticalLabelPosition=top;shadow=0;dashed=0;align=center;html=1;verticalAlign=bottom;shape=mxgraph.electrical.waveforms.square_wave;labelPosition=center;" vertex="1" parent="1">
          <mxGeometry x="30" y="560" width="130" height="70" as="geometry" />
        </mxCell>
        <mxCell id="aXw4IWgBB-Bs6DAsrM4V-33" value="" style="pointerEvents=1;verticalLabelPosition=top;shadow=0;dashed=0;align=center;html=1;verticalAlign=bottom;shape=mxgraph.electrical.waveforms.square_wave;labelPosition=center;" vertex="1" parent="1">
          <mxGeometry x="160" y="560" width="130" height="70" as="geometry" />
        </mxCell>
        <mxCell id="aXw4IWgBB-Bs6DAsrM4V-34" value="" style="pointerEvents=1;verticalLabelPosition=top;shadow=0;dashed=0;align=center;html=1;verticalAlign=bottom;shape=mxgraph.electrical.waveforms.square_wave;labelPosition=center;" vertex="1" parent="1">
          <mxGeometry x="290" y="560" width="130" height="70" as="geometry" />
        </mxCell>
        <mxCell id="aXw4IWgBB-Bs6DAsrM4V-35" value="" style="pointerEvents=1;verticalLabelPosition=top;shadow=0;dashed=0;align=center;html=1;verticalAlign=bottom;shape=mxgraph.electrical.waveforms.square_wave;labelPosition=center;" vertex="1" parent="1">
          <mxGeometry x="420" y="560" width="130" height="70" as="geometry" />
        </mxCell>
        <mxCell id="aXw4IWgBB-Bs6DAsrM4V-36" value="" style="pointerEvents=1;verticalLabelPosition=top;shadow=0;dashed=0;align=center;html=1;verticalAlign=bottom;shape=mxgraph.electrical.waveforms.square_wave;labelPosition=center;" vertex="1" parent="1">
          <mxGeometry x="550" y="560" width="130" height="70" as="geometry" />
        </mxCell>
        <mxCell id="aXw4IWgBB-Bs6DAsrM4V-37" value="" style="pointerEvents=1;verticalLabelPosition=top;shadow=0;dashed=0;align=center;html=1;verticalAlign=bottom;shape=mxgraph.electrical.waveforms.square_wave;labelPosition=center;" vertex="1" parent="1">
          <mxGeometry x="680" y="560" width="130" height="70" as="geometry" />
        </mxCell>
        <mxCell id="aXw4IWgBB-Bs6DAsrM4V-38" value="" style="pointerEvents=1;verticalLabelPosition=top;shadow=0;dashed=0;align=center;html=1;verticalAlign=bottom;shape=mxgraph.electrical.waveforms.square_wave;labelPosition=center;" vertex="1" parent="1">
          <mxGeometry x="810" y="560" width="130" height="70" as="geometry" />
        </mxCell>
        <mxCell id="aXw4IWgBB-Bs6DAsrM4V-39" value="cmd_r &amp;lt;= CMD_REFRESH" style="text;strokeColor=none;align=center;fillColor=none;html=1;verticalAlign=middle;whiteSpace=wrap;rounded=0;" vertex="1" parent="1">
          <mxGeometry x="15" y="650" width="160" height="30" as="geometry" />
        </mxCell>
        <mxCell id="aXw4IWgBB-Bs6DAsrM4V-40" value="Activate" style="pointerEvents=1;verticalLabelPosition=top;shadow=0;dashed=0;align=center;html=1;verticalAlign=bottom;shape=mxgraph.electrical.waveforms.square_wave;labelPosition=center;" vertex="1" parent="1">
          <mxGeometry x="1000" y="240" width="140" height="70" as="geometry" />
        </mxCell>
        <mxCell id="aXw4IWgBB-Bs6DAsrM4V-41" value="Trp" style="shape=crossbar;whiteSpace=wrap;html=1;rounded=1;labelPosition=center;verticalLabelPosition=top;align=center;verticalAlign=bottom;" vertex="1" parent="1">
          <mxGeometry x="720" y="180" width="280" height="20" as="geometry" />
        </mxCell>
      </root>
    </mxGraphModel>
  </diagram>
</mxfile>
